<svg width="77" height="101" fill="none" xmlns="http://www.w3.org/2000/svg">
  <path d="M74.203 100.5h-5.787c1.216-4.322 1.189-8.527-.083-12.616-.684-2.193-3.535-5.262-1.921-7.464 5.49-7.497 4.483-15.626.23-23.157-.511-.905-.57-2.096.055-2.862 4.205-5.145 4.985-10.769 2.34-16.873-2.16-4.992-7.187-9.071-12.848-8.886-.979.03-1.914.066-2.806.105a1.12 1.12 0 0 1-1.082-.682c-1.923-4.51-5.301-7.447-10.135-8.81-6.71-1.895-14.127 1.772-17.084 8.002-.448.943-.566 1.499-1.807 1.456-1.631-.058-3.317-.214-4.848.097-10.496 2.139-14.97 15.05-9.54 23.7 1.284 2.042 3.15 2.37 1.363 5.326-4.105 6.802-4.646 16.013.462 22.487 1.752 2.223-1.48 6.05-2.11 8.42-1.006 3.797-.932 7.716.223 11.757H3.013c-1.61-5.582-1.04-12.823 1.962-17.954a.314.314 0 0 0-.008-.354C-.028 74.54.34 64.42 4.384 56.48a.355.355 0 0 0-.021-.375c-4.94-7.45-4.743-17.474.579-24.66 1.174-1.582 2.994-3.228 4.533-4.773a.393.393 0 0 0 .109-.362c-1.107-5.854-.885-11.652.666-17.394C11.261 5.178 14.08.324 18.356.505c6.571.278 9.024 10.267 9.372 15.319a.172.172 0 0 0 .256.139c7.036-4.022 14.07-4.006 21.101.046a.268.268 0 0 0 .403-.215c.28-4.348 1.702-9.8 4.763-13.07 2.063-2.206 5.045-2.897 7.611-1.461 7.024 3.931 6.965 18.657 5.77 25.14a.344.344 0 0 0 .11.336c1.542 1.445 2.543 2.405 3.002 2.88 6.613 6.853 7.124 18.383 2.03 26.335a.34.34 0 0 0-.017.362c4.067 7.981 4.54 18.249-.558 25.935a.385.385 0 0 0 0 .421 15.113 15.113 0 0 1 2.084 4.766c1.099 4.434 1.072 8.788-.08 13.062ZM18.406 6.331a.272.272 0 0 0-.185-.071.256.256 0 0 0-.18.075c-3.589 3.591-3.803 12.503-3.132 17.133.025.177.123.244.294.202a31.325 31.325 0 0 1 6.084-.858.44.44 0 0 0 .323-.156c.436-.5.66-.887.671-1.162.172-4.31-.495-12.035-3.874-15.163Zm40.953.177a.641.641 0 0 0-.965.088c-2.935 4.096-3.606 9.846-3.493 14.738.009.334.225.772.65 1.314a.41.41 0 0 0 .331.168c2.1.053 4.16.363 6.181.93a.176.176 0 0 0 .223-.143c.595-4.31.49-13.803-2.927-17.095Z" fill="#fff"/>
  <path d="M50.402 46.979c8.13 7.906 1.732 18.75-8.32 19.448-1.94.135-4.243.143-6.91.026-7.083-.312-13.94-6.698-11.545-14.326 3.451-10.978 19.24-12.477 26.775-5.148Zm-1.25 4.63c-3.376-5.64-11.423-6.524-16.77-3.893-2.897 1.427-5.585 4.411-5.358 7.825.574 8.744 15.205 8.352 19.86 5.296 3.283-2.16 4.281-5.86 2.268-9.227Z" fill="#fff"/>
  <path d="M36.782 54.952c-1.146-.398-1.718-1.2-1.715-2.404 0-.127.044-.25.126-.345 1.01-1.2 2.071-.863 3.136-.13a.33.33 0 0 0 .398-.017c.797-.636 2.03-.977 2.814-.127 1.313 1.428-.436 2.472-1.43 3.208a.312.312 0 0 0-.121.278l.226 2.21a.465.465 0 0 1-.105.354c-.598.749-1.386.965-2.365.648-1.501-.488-.755-2.24-.721-3.326.003-.176-.078-.293-.243-.349Z" fill="#fff"/>
  <path fill-rule="evenodd" clip-rule="evenodd" d="M13.399 43.411a1.726 1.726 0 0 1 2.42-.322l-1.05 1.37 1.05-1.37-.003-.002.001.001.011.009a6.796 6.796 0 0 0 .293.207c.207.142.497.33.826.514.745.419 1.375.642 1.706.642.508 0 1.155-.246 1.79-.622a7.522 7.522 0 0 0 .904-.632l.041-.035.005-.005a1.726 1.726 0 0 1 2.29 2.584l-1.147-1.29 1.146 1.29-.003.002-.003.003-.01.009-.027.023a9.187 9.187 0 0 1-.391.315c-.253.192-.612.448-1.046.705-.822.487-2.116 1.104-3.55 1.104-1.295 0-2.606-.64-3.397-1.084a14.834 14.834 0 0 1-1.492-.965l-.028-.02-.008-.007-.005-.004 1.048-1.371-1.049 1.37a1.726 1.726 0 0 1-.322-2.419Zm42.974-.322.011.008.057.041a11.403 11.403 0 0 0 1.062.68c.744.419 1.374.642 1.706.642.508 0 1.155-.246 1.79-.622a7.522 7.522 0 0 0 .903-.632l.042-.035.002-.002.003-.003a1.726 1.726 0 0 1 2.289 2.584l-1.147-1.29 1.146 1.29-.005.005-.01.009-.027.023a9.187 9.187 0 0 1-.391.315c-.253.192-.612.448-1.046.705-.822.487-2.116 1.104-3.55 1.104-1.295 0-2.607-.64-3.397-1.084a14.834 14.834 0 0 1-1.493-.965l-.027-.02-.009-.007-.003-.003h-.001s-.001-.002 1.047-1.372l-1.048 1.37a1.726 1.726 0 0 1 2.096-2.741Z" fill="#fff"/>
</svg>
